%TF.GenerationSoftware,KiCad,Pcbnew,9.0.3*%
%TF.CreationDate,2025-07-31T22:43:19+01:00*%
%TF.ProjectId,hierophone,68696572-6f70-4686-9f6e-652e6b696361,r02*%
%TF.SameCoordinates,Original*%
%TF.FileFunction,Soldermask,Top*%
%TF.FilePolarity,Negative*%
%FSLAX46Y46*%
G04 Gerber Fmt 4.6, Leading zero omitted, Abs format (unit mm)*
G04 Created by KiCad (PCBNEW 9.0.3) date 2025-07-31 22:43:19*
%MOMM*%
%LPD*%
G01*
G04 APERTURE LIST*
G04 Aperture macros list*
%AMRoundRect*
0 Rectangle with rounded corners*
0 $1 Rounding radius*
0 $2 $3 $4 $5 $6 $7 $8 $9 X,Y pos of 4 corners*
0 Add a 4 corners polygon primitive as box body*
4,1,4,$2,$3,$4,$5,$6,$7,$8,$9,$2,$3,0*
0 Add four circle primitives for the rounded corners*
1,1,$1+$1,$2,$3*
1,1,$1+$1,$4,$5*
1,1,$1+$1,$6,$7*
1,1,$1+$1,$8,$9*
0 Add four rect primitives between the rounded corners*
20,1,$1+$1,$2,$3,$4,$5,0*
20,1,$1+$1,$4,$5,$6,$7,0*
20,1,$1+$1,$6,$7,$8,$9,0*
20,1,$1+$1,$8,$9,$2,$3,0*%
G04 Aperture macros list end*
%ADD10C,1.600000*%
%ADD11O,1.600000X1.600000*%
%ADD12R,1.600000X1.600000*%
%ADD13O,2.200000X2.900000*%
%ADD14R,1.800000X1.800000*%
%ADD15C,1.800000*%
%ADD16R,2.921000X2.921000*%
%ADD17C,2.921000*%
%ADD18C,2.000000*%
%ADD19O,3.100000X2.300000*%
%ADD20RoundRect,0.650000X-0.650000X-0.650000X0.650000X-0.650000X0.650000X0.650000X-0.650000X0.650000X0*%
%ADD21RoundRect,0.650000X0.650000X0.650000X-0.650000X0.650000X-0.650000X-0.650000X0.650000X-0.650000X0*%
%ADD22RoundRect,0.250000X-0.550000X-0.550000X0.550000X-0.550000X0.550000X0.550000X-0.550000X0.550000X0*%
%ADD23RoundRect,0.250000X0.550000X0.550000X-0.550000X0.550000X-0.550000X-0.550000X0.550000X-0.550000X0*%
%ADD24R,1.500000X1.500000*%
%ADD25C,1.500000*%
%ADD26C,6.400000*%
%ADD27RoundRect,0.250000X-0.550000X0.550000X-0.550000X-0.550000X0.550000X-0.550000X0.550000X0.550000X0*%
%ADD28R,1.740000X2.200000*%
%ADD29O,1.740000X2.200000*%
%ADD30RoundRect,0.250000X0.550000X-0.550000X0.550000X0.550000X-0.550000X0.550000X-0.550000X-0.550000X0*%
%ADD31R,2.200000X1.740000*%
%ADD32O,2.200000X1.740000*%
%ADD33RoundRect,0.249999X-0.850001X-0.850001X0.850001X-0.850001X0.850001X0.850001X-0.850001X0.850001X0*%
%ADD34C,2.200000*%
%ADD35RoundRect,0.249999X0.850001X-0.850001X0.850001X0.850001X-0.850001X0.850001X-0.850001X-0.850001X0*%
%ADD36RoundRect,0.249999X0.850001X0.850001X-0.850001X0.850001X-0.850001X-0.850001X0.850001X-0.850001X0*%
G04 APERTURE END LIST*
D10*
%TO.C,R50*%
X221234000Y-36195000D03*
D11*
X231394000Y-36195000D03*
%TD*%
D12*
%TO.C,C42*%
X152527000Y-39116000D03*
D10*
X152527000Y-37116000D03*
%TD*%
%TO.C,R33*%
X147828000Y-50292000D03*
D11*
X157988000Y-50292000D03*
%TD*%
D10*
%TO.C,R62*%
X68072000Y-102362000D03*
D11*
X78232000Y-102362000D03*
%TD*%
D13*
%TO.C,RV5*%
X190200000Y-55000000D03*
X199800000Y-55000000D03*
D14*
X192500000Y-62500000D03*
D15*
X195000000Y-62500000D03*
X197500000Y-62500000D03*
%TD*%
D16*
%TO.C,SW3*%
X175301000Y-87500000D03*
D17*
X180000000Y-87500000D03*
X184699000Y-87500000D03*
%TD*%
D10*
%TO.C,R27*%
X207264000Y-61214000D03*
D11*
X207264000Y-51054000D03*
%TD*%
D10*
%TO.C,R5*%
X105410000Y-56388000D03*
D11*
X115570000Y-56388000D03*
%TD*%
D10*
%TO.C,C18*%
X171958000Y-66802000D03*
X176958000Y-66802000D03*
%TD*%
D18*
%TO.C,TP8*%
X189738000Y-92964000D03*
%TD*%
D19*
%TO.C,J13*%
X45000000Y-91502500D03*
D20*
X45000000Y-80102500D03*
X45000000Y-88402500D03*
%TD*%
D10*
%TO.C,R18*%
X37000000Y-80100000D03*
D11*
X37000000Y-69940000D03*
%TD*%
D19*
%TO.C,J1*%
X45000000Y-118520000D03*
D21*
X45000000Y-129920000D03*
X45000000Y-121620000D03*
%TD*%
D22*
%TO.C,U3*%
X161046000Y-52060000D03*
D10*
X161046000Y-54600000D03*
X161046000Y-57140000D03*
X161046000Y-59680000D03*
X161046000Y-62220000D03*
X161046000Y-64760000D03*
X161046000Y-67300000D03*
X161046000Y-69840000D03*
X168666000Y-69840000D03*
X168666000Y-67300000D03*
X168666000Y-64760000D03*
X168666000Y-62220000D03*
X168666000Y-59680000D03*
X168666000Y-57140000D03*
X168666000Y-54600000D03*
X168666000Y-52060000D03*
%TD*%
%TO.C,R46*%
X128778000Y-145034000D03*
D11*
X138938000Y-145034000D03*
%TD*%
D19*
%TO.C,J5*%
X235000000Y-71480000D03*
D20*
X235000000Y-60080000D03*
X235000000Y-68380000D03*
%TD*%
D10*
%TO.C,R13*%
X220980000Y-146304000D03*
D11*
X220980000Y-156464000D03*
%TD*%
D10*
%TO.C,R52*%
X82804000Y-44958000D03*
D11*
X72644000Y-44958000D03*
%TD*%
D13*
%TO.C,RV8*%
X105200000Y-125000000D03*
X114800000Y-125000000D03*
D14*
X107500000Y-132500000D03*
D15*
X110000000Y-132500000D03*
X112500000Y-132500000D03*
%TD*%
D10*
%TO.C,R49*%
X180213000Y-76454000D03*
D11*
X180213000Y-66294000D03*
%TD*%
D23*
%TO.C,U10*%
X206248000Y-82032000D03*
D10*
X206248000Y-79492000D03*
X206248000Y-76952000D03*
X206248000Y-74412000D03*
X198628000Y-74412000D03*
X198628000Y-76952000D03*
X198628000Y-79492000D03*
X198628000Y-82032000D03*
%TD*%
%TO.C,R15*%
X147828000Y-59436000D03*
D11*
X157988000Y-59436000D03*
%TD*%
D18*
%TO.C,TP2*%
X196850000Y-124714000D03*
%TD*%
D10*
%TO.C,R24*%
X171704000Y-53340000D03*
D11*
X181864000Y-53340000D03*
%TD*%
D12*
%TO.C,C9*%
X85852000Y-140970000D03*
D10*
X87852000Y-140970000D03*
%TD*%
D18*
%TO.C,TP5*%
X102108000Y-100838000D03*
%TD*%
D24*
%TO.C,Q1*%
X88900000Y-40132000D03*
D25*
X86360000Y-40132000D03*
X83820000Y-40132000D03*
%TD*%
D10*
%TO.C,R1*%
X105410000Y-59436000D03*
D11*
X115570000Y-59436000D03*
%TD*%
D12*
%TO.C,C7*%
X85852000Y-132334000D03*
D10*
X85852000Y-134334000D03*
%TD*%
%TO.C,R37*%
X69850000Y-58928000D03*
D11*
X69850000Y-48768000D03*
%TD*%
D10*
%TO.C,R42*%
X219456000Y-50038000D03*
D11*
X219456000Y-39878000D03*
%TD*%
D10*
%TO.C,C22*%
X221996000Y-66040000D03*
X221996000Y-61040000D03*
%TD*%
%TO.C,R4*%
X105410000Y-53340000D03*
D11*
X115570000Y-53340000D03*
%TD*%
D10*
%TO.C,R55*%
X103632000Y-137922000D03*
D11*
X103632000Y-148082000D03*
%TD*%
D10*
%TO.C,R30*%
X76708000Y-63500000D03*
D11*
X76708000Y-53340000D03*
%TD*%
D10*
%TO.C,C31*%
X87884000Y-128524000D03*
X82884000Y-128524000D03*
%TD*%
%TO.C,C41*%
X103632000Y-155622000D03*
X103632000Y-150622000D03*
%TD*%
D26*
%TO.C,H4*%
X246000000Y-156000000D03*
%TD*%
D13*
%TO.C,RV10*%
X205200000Y-125000000D03*
X214800000Y-125000000D03*
D14*
X207500000Y-132500000D03*
D15*
X210000000Y-132500000D03*
X212500000Y-132500000D03*
%TD*%
D10*
%TO.C,C27*%
X214550000Y-74422000D03*
X209550000Y-74422000D03*
%TD*%
%TO.C,C36*%
X58928000Y-102362000D03*
X63928000Y-102362000D03*
%TD*%
%TO.C,R59*%
X52324000Y-144780000D03*
D11*
X52324000Y-154940000D03*
%TD*%
D23*
%TO.C,U6*%
X98806000Y-133604000D03*
D10*
X98806000Y-131064000D03*
X98806000Y-128524000D03*
X98806000Y-125984000D03*
X91186000Y-125984000D03*
X91186000Y-128524000D03*
X91186000Y-131064000D03*
X91186000Y-133604000D03*
%TD*%
%TO.C,R38*%
X242443000Y-68326000D03*
D11*
X242443000Y-58166000D03*
%TD*%
D10*
%TO.C,R51*%
X66548000Y-92456000D03*
D11*
X66548000Y-82296000D03*
%TD*%
D10*
%TO.C,R32*%
X131064000Y-41910000D03*
D11*
X131064000Y-52070000D03*
%TD*%
D10*
%TO.C,R61*%
X96266000Y-100838000D03*
D11*
X86106000Y-100838000D03*
%TD*%
D13*
%TO.C,RV4*%
X80200000Y-55000000D03*
X89800000Y-55000000D03*
D14*
X82500000Y-62500000D03*
D15*
X85000000Y-62500000D03*
X87500000Y-62500000D03*
%TD*%
D10*
%TO.C,C24*%
X134032000Y-139954000D03*
X129032000Y-139954000D03*
%TD*%
D22*
%TO.C,U13*%
X139710000Y-72868000D03*
D10*
X139710000Y-75408000D03*
X139710000Y-77948000D03*
X139710000Y-80488000D03*
X147330000Y-80488000D03*
X147330000Y-77948000D03*
X147330000Y-75408000D03*
X147330000Y-72868000D03*
%TD*%
%TO.C,C23*%
X114808000Y-145034000D03*
X114808000Y-150034000D03*
%TD*%
D12*
%TO.C,C11*%
X146812000Y-113538000D03*
D10*
X146812000Y-111538000D03*
%TD*%
%TO.C,C26*%
X195326000Y-82042000D03*
X195326000Y-87042000D03*
%TD*%
D12*
%TO.C,C33*%
X56642000Y-97028000D03*
D10*
X58642000Y-97028000D03*
%TD*%
%TO.C,R43*%
X87630000Y-117602000D03*
D11*
X97790000Y-117602000D03*
%TD*%
D16*
%TO.C,SW1*%
X175000000Y-144699000D03*
D17*
X175000000Y-140000000D03*
X175000000Y-135301000D03*
%TD*%
D27*
%TO.C,D5*%
X213614000Y-42418000D03*
D10*
X213614000Y-50038000D03*
%TD*%
%TO.C,R35*%
X72898000Y-58928000D03*
D11*
X72898000Y-48768000D03*
%TD*%
D10*
%TO.C,R21*%
X119126000Y-74930000D03*
D11*
X119126000Y-85090000D03*
%TD*%
D12*
%TO.C,C28*%
X178816000Y-108204000D03*
D10*
X178816000Y-110204000D03*
%TD*%
D19*
%TO.C,J4*%
X45000000Y-71480000D03*
D20*
X45000000Y-60080000D03*
X45000000Y-68380000D03*
%TD*%
D13*
%TO.C,RV1*%
X65200000Y-125000000D03*
X74800000Y-125000000D03*
D14*
X67500000Y-132500000D03*
D15*
X70000000Y-132500000D03*
X72500000Y-132500000D03*
%TD*%
D28*
%TO.C,J10*%
X147828000Y-139700000D03*
D29*
X150368000Y-139700000D03*
%TD*%
D10*
%TO.C,R44*%
X171704000Y-49784000D03*
D11*
X181864000Y-49784000D03*
%TD*%
D10*
%TO.C,R29*%
X61214000Y-38100000D03*
D11*
X61214000Y-48260000D03*
%TD*%
D10*
%TO.C,R48*%
X186436000Y-129032000D03*
D11*
X176276000Y-129032000D03*
%TD*%
D10*
%TO.C,R58*%
X222504000Y-39878000D03*
D11*
X222504000Y-50038000D03*
%TD*%
D26*
%TO.C,H2*%
X246000000Y-34000000D03*
%TD*%
D10*
%TO.C,R26*%
X162052000Y-43434000D03*
D11*
X162052000Y-33274000D03*
%TD*%
D13*
%TO.C,RV3*%
X105200000Y-85000000D03*
X114800000Y-85000000D03*
D14*
X107500000Y-92500000D03*
D15*
X110000000Y-92500000D03*
X112500000Y-92500000D03*
%TD*%
D10*
%TO.C,R19*%
X97790000Y-96012000D03*
D11*
X107950000Y-96012000D03*
%TD*%
D13*
%TO.C,RV6*%
X40200000Y-45000000D03*
X49800000Y-45000000D03*
D14*
X42500000Y-52500000D03*
D15*
X45000000Y-52500000D03*
X47500000Y-52500000D03*
%TD*%
D10*
%TO.C,C21*%
X210820000Y-49784000D03*
X210820000Y-44784000D03*
%TD*%
D30*
%TO.C,U4*%
X58684000Y-58918000D03*
D10*
X61224000Y-58918000D03*
X63764000Y-58918000D03*
X66304000Y-58918000D03*
X66304000Y-51298000D03*
X63764000Y-51298000D03*
X61224000Y-51298000D03*
X58684000Y-51298000D03*
%TD*%
%TO.C,R45*%
X117602000Y-136398000D03*
D11*
X127762000Y-136398000D03*
%TD*%
D13*
%TO.C,RV12*%
X135200000Y-125000000D03*
X144800000Y-125000000D03*
D14*
X137500000Y-132500000D03*
D15*
X140000000Y-132500000D03*
X142500000Y-132500000D03*
%TD*%
D10*
%TO.C,C1*%
X100838000Y-72470000D03*
X100838000Y-77470000D03*
%TD*%
D18*
%TO.C,TP6*%
X63500000Y-34544000D03*
%TD*%
D10*
%TO.C,R20*%
X122174000Y-96012000D03*
D11*
X112014000Y-96012000D03*
%TD*%
D22*
%TO.C,D2*%
X128778000Y-147828000D03*
D10*
X136398000Y-147828000D03*
%TD*%
%TO.C,C12*%
X58166000Y-48006000D03*
X58166000Y-43006000D03*
%TD*%
%TO.C,R14*%
X147828000Y-53340000D03*
D11*
X157988000Y-53340000D03*
%TD*%
D10*
%TO.C,R12*%
X129286000Y-62484000D03*
D11*
X139446000Y-62484000D03*
%TD*%
D28*
%TO.C,J9*%
X92456000Y-139446000D03*
D29*
X94996000Y-139446000D03*
%TD*%
D30*
%TO.C,U1*%
X55372000Y-113538000D03*
D10*
X57912000Y-113538000D03*
X60452000Y-113538000D03*
X62992000Y-113538000D03*
X65532000Y-113538000D03*
X68072000Y-113538000D03*
X70612000Y-113538000D03*
X70612000Y-105918000D03*
X68072000Y-105918000D03*
X65532000Y-105918000D03*
X62992000Y-105918000D03*
X60452000Y-105918000D03*
X57912000Y-105918000D03*
X55372000Y-105918000D03*
%TD*%
%TO.C,C30*%
X197358000Y-115316000D03*
X192358000Y-115316000D03*
%TD*%
%TO.C,R23*%
X181864000Y-59436000D03*
D11*
X171704000Y-59436000D03*
%TD*%
D10*
%TO.C,R9*%
X117348000Y-47244000D03*
D11*
X127508000Y-47244000D03*
%TD*%
D10*
%TO.C,R3*%
X105410000Y-62484000D03*
D11*
X115570000Y-62484000D03*
%TD*%
D12*
%TO.C,C4*%
X110744000Y-100838000D03*
D10*
X108744000Y-100838000D03*
%TD*%
%TO.C,R40*%
X203708000Y-47752000D03*
D11*
X203708000Y-57912000D03*
%TD*%
D30*
%TO.C,U5*%
X210820000Y-60706000D03*
D10*
X213360000Y-60706000D03*
X215900000Y-60706000D03*
X218440000Y-60706000D03*
X218440000Y-53086000D03*
X215900000Y-53086000D03*
X213360000Y-53086000D03*
X210820000Y-53086000D03*
%TD*%
D13*
%TO.C,RV9*%
X70200000Y-85000000D03*
X79800000Y-85000000D03*
D14*
X72500000Y-92500000D03*
D15*
X75000000Y-92500000D03*
X77500000Y-92500000D03*
%TD*%
D10*
%TO.C,R54*%
X224028000Y-146304000D03*
D11*
X224028000Y-156464000D03*
%TD*%
D24*
%TO.C,Q2*%
X83820000Y-36068000D03*
D25*
X86360000Y-36068000D03*
X88900000Y-36068000D03*
%TD*%
D10*
%TO.C,R34*%
X53340000Y-65532000D03*
D11*
X53340000Y-55372000D03*
%TD*%
D10*
%TO.C,R8*%
X44450000Y-137922000D03*
D11*
X34290000Y-137922000D03*
%TD*%
D10*
%TO.C,R60*%
X52578000Y-129032000D03*
D11*
X52578000Y-118872000D03*
%TD*%
D31*
%TO.C,J3*%
X215138000Y-101854000D03*
D32*
X215138000Y-99314000D03*
X215138000Y-96774000D03*
%TD*%
D10*
%TO.C,R16*%
X147828000Y-56388000D03*
D11*
X157988000Y-56388000D03*
%TD*%
D13*
%TO.C,RV2*%
X65200000Y-150000000D03*
X74800000Y-150000000D03*
D14*
X67500000Y-157500000D03*
D15*
X70000000Y-157500000D03*
X72500000Y-157500000D03*
%TD*%
D10*
%TO.C,R47*%
X128143000Y-154686000D03*
D11*
X138303000Y-154686000D03*
%TD*%
D23*
%TO.C,U7*%
X125720000Y-147564000D03*
D10*
X125720000Y-145024000D03*
X125720000Y-142484000D03*
X125720000Y-139944000D03*
X118100000Y-139944000D03*
X118100000Y-142484000D03*
X118100000Y-145024000D03*
X118100000Y-147564000D03*
%TD*%
D19*
%TO.C,J7*%
X235000000Y-156480000D03*
D20*
X235000000Y-145080000D03*
X235000000Y-153380000D03*
%TD*%
D18*
%TO.C,RV14*%
X169458000Y-37826000D03*
X171958000Y-35326000D03*
X174458000Y-37826000D03*
%TD*%
D10*
%TO.C,C37*%
X227076000Y-146558000D03*
X227076000Y-151558000D03*
%TD*%
%TO.C,R22*%
X181864000Y-56388000D03*
D11*
X171704000Y-56388000D03*
%TD*%
D10*
%TO.C,C25*%
X166624000Y-133858000D03*
X161624000Y-133858000D03*
%TD*%
%TO.C,C19*%
X152734000Y-65532000D03*
X157734000Y-65532000D03*
%TD*%
D26*
%TO.C,H1*%
X34000000Y-34000000D03*
%TD*%
D18*
%TO.C,RV13*%
X72644000Y-36362000D03*
X75144000Y-38862000D03*
X72644000Y-41362000D03*
%TD*%
%TO.C,TP7*%
X153670000Y-96774000D03*
%TD*%
D10*
%TO.C,R17*%
X145034000Y-59436000D03*
D11*
X145034000Y-69596000D03*
%TD*%
D18*
%TO.C,TP9*%
X217551000Y-34544000D03*
%TD*%
D26*
%TO.C,H3*%
X34000000Y-156000000D03*
%TD*%
D10*
%TO.C,C40*%
X88646000Y-87550000D03*
X88646000Y-82550000D03*
%TD*%
%TO.C,C6*%
X216408000Y-49784000D03*
X216408000Y-44784000D03*
%TD*%
%TO.C,R7*%
X44450000Y-134874000D03*
D11*
X34290000Y-134874000D03*
%TD*%
D12*
%TO.C,C10*%
X141732000Y-139954000D03*
D10*
X143732000Y-139954000D03*
%TD*%
D18*
%TO.C,TP4*%
X41148000Y-100838000D03*
%TD*%
D10*
%TO.C,C32*%
X62992000Y-117094000D03*
X67992000Y-117094000D03*
%TD*%
D18*
%TO.C,TP10*%
X81534000Y-71628000D03*
%TD*%
D22*
%TO.C,U2*%
X118628000Y-52060000D03*
D10*
X118628000Y-54600000D03*
X118628000Y-57140000D03*
X118628000Y-59680000D03*
X118628000Y-62220000D03*
X118628000Y-64760000D03*
X118628000Y-67300000D03*
X118628000Y-69840000D03*
X126248000Y-69840000D03*
X126248000Y-67300000D03*
X126248000Y-64760000D03*
X126248000Y-62220000D03*
X126248000Y-59680000D03*
X126248000Y-57140000D03*
X126248000Y-54600000D03*
X126248000Y-52060000D03*
%TD*%
D18*
%TO.C,TP3*%
X190500000Y-124714000D03*
%TD*%
D10*
%TO.C,R2*%
X224028000Y-132588000D03*
D11*
X224028000Y-122428000D03*
%TD*%
D33*
%TO.C,D3*%
X164719000Y-148971000D03*
D34*
X174879000Y-148971000D03*
%TD*%
D12*
%TO.C,C29*%
X196850000Y-106934000D03*
D10*
X196850000Y-104934000D03*
%TD*%
%TO.C,C2*%
X135128000Y-72684000D03*
X135128000Y-77684000D03*
%TD*%
%TO.C,C5*%
X64262000Y-48006000D03*
X64262000Y-43006000D03*
%TD*%
%TO.C,R28*%
X84836000Y-110998000D03*
D11*
X94996000Y-110998000D03*
%TD*%
D12*
%TO.C,C20*%
X166624000Y-138684000D03*
D10*
X164624000Y-138684000D03*
%TD*%
D22*
%TO.C,U9*%
X183642000Y-104150000D03*
D10*
X183642000Y-106690000D03*
X183642000Y-109230000D03*
X183642000Y-111770000D03*
X191262000Y-111770000D03*
X191262000Y-109230000D03*
X191262000Y-106690000D03*
X191262000Y-104150000D03*
%TD*%
%TO.C,C17*%
X110316000Y-66802000D03*
X115316000Y-66802000D03*
%TD*%
%TO.C,R36*%
X58674000Y-72136000D03*
D11*
X58674000Y-61976000D03*
%TD*%
D19*
%TO.C,J2*%
X45000000Y-143520000D03*
D21*
X45000000Y-154920000D03*
X45000000Y-146620000D03*
%TD*%
D19*
%TO.C,J6*%
X235000000Y-131480000D03*
D20*
X235000000Y-120080000D03*
X235000000Y-128380000D03*
%TD*%
D10*
%TO.C,R6*%
X56388000Y-102362000D03*
D11*
X46228000Y-102362000D03*
%TD*%
D10*
%TO.C,R25*%
X195707000Y-76962000D03*
D11*
X185547000Y-76962000D03*
%TD*%
D10*
%TO.C,C39*%
X96266000Y-68072000D03*
X101266000Y-68072000D03*
%TD*%
%TO.C,C15*%
X131398000Y-80518000D03*
X136398000Y-80518000D03*
%TD*%
%TO.C,C34*%
X176911000Y-76454000D03*
X176911000Y-81454000D03*
%TD*%
%TO.C,C38*%
X219456000Y-127334000D03*
X219456000Y-132334000D03*
%TD*%
%TO.C,C44*%
X76454000Y-99314000D03*
X71454000Y-99314000D03*
%TD*%
D24*
%TO.C,Q3*%
X206248000Y-39106000D03*
D25*
X206248000Y-41646000D03*
X206248000Y-44186000D03*
%TD*%
D10*
%TO.C,R39*%
X218186000Y-64262000D03*
D11*
X208026000Y-64262000D03*
%TD*%
D12*
%TO.C,C43*%
X189357000Y-39055113D03*
D10*
X189357000Y-37055113D03*
%TD*%
%TO.C,C35*%
X46228000Y-99314000D03*
X51228000Y-99314000D03*
%TD*%
D13*
%TO.C,RV7*%
X230200000Y-45000000D03*
X239800000Y-45000000D03*
D14*
X232500000Y-52500000D03*
D15*
X235000000Y-52500000D03*
X237500000Y-52500000D03*
%TD*%
D10*
%TO.C,R56*%
X165100000Y-33274000D03*
D11*
X165100000Y-43434000D03*
%TD*%
D27*
%TO.C,U8*%
X227066000Y-135646000D03*
D10*
X224526000Y-135646000D03*
X221986000Y-135646000D03*
X219446000Y-135646000D03*
X219446000Y-143266000D03*
X221986000Y-143266000D03*
X224526000Y-143266000D03*
X227066000Y-143266000D03*
%TD*%
D18*
%TO.C,TP1*%
X184150000Y-124714000D03*
%TD*%
D10*
%TO.C,C3*%
X151892000Y-75652000D03*
X151892000Y-80652000D03*
%TD*%
D35*
%TO.C,D6*%
X158877000Y-43561000D03*
D34*
X158877000Y-33401000D03*
%TD*%
D10*
%TO.C,R57*%
X180594000Y-46355000D03*
D11*
X190754000Y-46355000D03*
%TD*%
D10*
%TO.C,C14*%
X150622000Y-72858000D03*
X155622000Y-72858000D03*
%TD*%
%TO.C,R11*%
X139446000Y-56388000D03*
D11*
X129286000Y-56388000D03*
%TD*%
D10*
%TO.C,R31*%
X105410000Y-50292000D03*
D11*
X115570000Y-50292000D03*
%TD*%
D10*
%TO.C,R41*%
X225552000Y-50038000D03*
D11*
X225552000Y-39878000D03*
%TD*%
D10*
%TO.C,C13*%
X71294000Y-62484000D03*
X66294000Y-62484000D03*
%TD*%
D36*
%TO.C,D7*%
X207772000Y-35687000D03*
D34*
X197612000Y-35687000D03*
%TD*%
D13*
%TO.C,RV11*%
X205200000Y-150000000D03*
X214800000Y-150000000D03*
D14*
X207500000Y-157500000D03*
D15*
X210000000Y-157500000D03*
X212500000Y-157500000D03*
%TD*%
D22*
%TO.C,U12*%
X88646000Y-71628000D03*
D10*
X88646000Y-74168000D03*
X88646000Y-76708000D03*
X88646000Y-79248000D03*
X96266000Y-79248000D03*
X96266000Y-76708000D03*
X96266000Y-74168000D03*
X96266000Y-71628000D03*
%TD*%
%TO.C,R10*%
X139446000Y-59436000D03*
D11*
X129286000Y-59436000D03*
%TD*%
D10*
%TO.C,C16*%
X129540000Y-65532000D03*
X134540000Y-65532000D03*
%TD*%
D28*
%TO.C,J8*%
X184912000Y-139954000D03*
D29*
X187452000Y-139954000D03*
%TD*%
D14*
%TO.C,D4*%
X173725000Y-122500000D03*
D15*
X176265000Y-122500000D03*
%TD*%
D10*
%TO.C,C8*%
X87630000Y-125650000D03*
X87630000Y-120650000D03*
%TD*%
D22*
%TO.C,D1*%
X117856000Y-151892000D03*
D10*
X125476000Y-151892000D03*
%TD*%
%TO.C,R53*%
X227076000Y-132588000D03*
D11*
X227076000Y-122428000D03*
%TD*%
D18*
%TO.C,RV15*%
X182332000Y-37866000D03*
X179832000Y-40366000D03*
X177332000Y-37866000D03*
%TD*%
M02*
