M48
; DRILL file {KiCad 9.0.3} date 2025-07-31T22:43:27+0100
; FORMAT={-:-/ absolute / inch / decimal}
; #@! TF.CreationDate,2025-07-31T22:43:27+01:00
; #@! TF.GenerationSoftware,Kicad,Pcbnew,9.0.3
; #@! TF.FileFunction,Plated,1,2,PTH
FMAT,2
INCH
; #@! TA.AperFunction,Plated,PTH,ViaDrill
T1C0.0120
; #@! TA.AperFunction,Plated,PTH,ComponentDrill
T2C0.0236
; #@! TA.AperFunction,Plated,PTH,ComponentDrill
T3C0.0315
; #@! TA.AperFunction,Plated,PTH,ComponentDrill
T4C0.0354
; #@! TA.AperFunction,Plated,PTH,ComponentDrill
T5C0.0394
; #@! TA.AperFunction,Plated,PTH,ComponentDrill
T6C0.0433
; #@! TA.AperFunction,Plated,PTH,ComponentDrill
T7C0.0472
; #@! TA.AperFunction,Plated,PTH,ComponentDrill
T8C0.0750
; #@! TA.AperFunction,Plated,PTH,ComponentDrill
T9C0.1260
%
G90
G05
T1
X3.38Y-4.14
X4.8Y-3.13
X7.69Y-3.9
X7.705Y-5.375
X7.9125Y-2.5575
X7.96Y-3.9
T3
X1.35Y-5.31
X1.35Y-5.43
X1.4567Y-2.7535
X1.4567Y-3.1535
X1.75Y-5.31
X1.75Y-5.43
X1.82Y-3.91
X1.82Y-4.03
X2.0169Y-3.91
X2.06Y-5.7
X2.06Y-6.1
X2.07Y-4.68
X2.07Y-5.08
X2.1Y-2.18
X2.1Y-2.58
X2.18Y-4.17
X2.18Y-4.47
X2.22Y-4.03
X2.23Y-3.82
X2.28Y-4.17
X2.28Y-4.47
X2.29Y-1.6931
X2.29Y-1.89
X2.3087Y-3.82
X2.31Y-2.44
X2.31Y-2.84
X2.3104Y-2.0196
X2.3104Y-2.3196
X2.32Y-4.03
X2.38Y-4.17
X2.38Y-4.47
X2.41Y-1.5
X2.41Y-1.9
X2.4104Y-2.0196
X2.4104Y-2.3196
X2.48Y-4.17
X2.48Y-4.47
X2.48Y-4.61
X2.5104Y-2.0196
X2.5104Y-2.3196
X2.5169Y-4.03
X2.53Y-1.6931
X2.53Y-1.89
X2.58Y-4.17
X2.58Y-4.47
X2.61Y-2.46
X2.6104Y-2.0196
X2.6104Y-2.3196
X2.62Y-3.24
X2.62Y-3.64
X2.6769Y-4.61
X2.68Y-4.03
X2.68Y-4.17
X2.68Y-4.47
X2.75Y-1.92
X2.75Y-2.32
X2.78Y-4.17
X2.78Y-4.47
X2.8069Y-2.46
X2.8131Y-3.91
X2.86Y-1.77
X2.87Y-1.92
X2.87Y-2.32
X3.01Y-3.91
X3.02Y-2.1
X3.02Y-2.5
X3.08Y-4.03
X3.26Y-1.77
X3.2631Y-5.06
X3.3Y-1.42
X3.3Y-1.58
X3.34Y-4.37
X3.38Y-5.21
X3.38Y-5.2887
X3.38Y-5.55
X3.39Y-3.97
X3.4Y-1.42
X3.4Y-1.58
X3.45Y-4.63
X3.45Y-4.75
X3.45Y-4.9469
X3.4587Y-5.55
X3.46Y-5.06
X3.49Y-2.82
X3.49Y-2.92
X3.49Y-3.02
X3.49Y-3.12
X3.49Y-3.25
X3.49Y-3.4469
X3.5Y-1.42
X3.5Y-1.58
X3.59Y-4.96
X3.59Y-5.06
X3.59Y-5.16
X3.59Y-5.26
X3.74Y-4.37
X3.79Y-2.68
X3.79Y-2.82
X3.79Y-2.92
X3.79Y-3.02
X3.79Y-3.12
X3.79Y-3.97
X3.85Y-3.78
X3.85Y-4.63
X3.89Y-4.96
X3.89Y-5.06
X3.89Y-5.16
X3.89Y-5.26
X3.97Y-2.8531
X3.97Y-3.05
X3.9869Y-2.68
X4.08Y-5.43
X4.08Y-5.83
X4.08Y-5.93
X4.08Y-6.1269
X4.15Y-1.98
X4.15Y-2.1
X4.15Y-2.22
X4.15Y-2.34
X4.15Y-2.46
X4.25Y-3.78
X4.2813Y-3.97
X4.3431Y-2.63
X4.36Y-3.97
X4.41Y-3.78
X4.52Y-5.71
X4.52Y-5.9069
X4.54Y-2.63
X4.55Y-1.98
X4.55Y-2.1
X4.55Y-2.22
X4.55Y-2.34
X4.55Y-2.46
X4.62Y-1.86
X4.63Y-5.37
X4.64Y-5.98
X4.6496Y-5.5096
X4.6496Y-5.6096
X4.6496Y-5.7096
X4.6496Y-5.8096
X4.6704Y-2.0496
X4.6704Y-2.1496
X4.6704Y-2.2496
X4.6704Y-2.3496
X4.6704Y-2.4496
X4.6704Y-2.5496
X4.6704Y-2.6496
X4.6704Y-2.7496
X4.69Y-2.95
X4.69Y-3.35
X4.81Y-3.78
X4.94Y-5.98
X4.9496Y-5.5096
X4.9496Y-5.6096
X4.9496Y-5.7096
X4.9496Y-5.8096
X4.9704Y-2.0496
X4.9704Y-2.1496
X4.9704Y-2.2496
X4.9704Y-2.3496
X4.9704Y-2.4496
X4.9704Y-2.5496
X4.9704Y-2.6496
X4.9704Y-2.7496
X5.02Y-1.86
X5.03Y-5.37
X5.045Y-6.09
X5.07Y-5.71
X5.07Y-5.82
X5.08Y-5.51
X5.09Y-2.22
X5.09Y-2.34
X5.09Y-2.46
X5.1Y-2.58
X5.16Y-1.65
X5.16Y-2.05
X5.1731Y-3.17
X5.2769Y-5.51
X5.2969Y-2.58
X5.32Y-2.8616
X5.32Y-3.0584
X5.37Y-3.17
X5.37Y-5.82
X5.445Y-6.09
X5.47Y-5.71
X5.49Y-2.22
X5.49Y-2.34
X5.49Y-2.46
X5.5004Y-2.8688
X5.5004Y-2.9688
X5.5004Y-3.0688
X5.5004Y-3.1688
X5.58Y-5.51
X5.6587Y-5.51
X5.71Y-2.34
X5.71Y-2.74
X5.78Y-4.3913
X5.78Y-4.47
X5.8004Y-2.8688
X5.8004Y-2.9688
X5.8004Y-3.0688
X5.8004Y-3.1688
X5.82Y-1.98
X5.82Y-2.1
X5.82Y-2.22
X5.82Y-2.34
X5.93Y-2.8684
X5.98Y-2.9784
X5.98Y-3.1753
X6.005Y-1.4613
X6.005Y-1.54
X6.0131Y-2.58
X6.1269Y-2.8684
X6.21Y-2.58
X6.22Y-1.98
X6.22Y-2.1
X6.22Y-2.22
X6.22Y-2.34
X6.3404Y-2.0496
X6.3404Y-2.1496
X6.3404Y-2.2496
X6.3404Y-2.3496
X6.3404Y-2.4496
X6.3404Y-2.5496
X6.3404Y-2.6496
X6.3404Y-2.7496
X6.3631Y-5.27
X6.38Y-1.31
X6.38Y-1.71
X6.4813Y-5.46
X6.5Y-1.31
X6.5Y-1.71
X6.56Y-5.27
X6.56Y-5.46
X6.6404Y-2.0496
X6.6404Y-2.1496
X6.6404Y-2.2496
X6.6404Y-2.3496
X6.6404Y-2.4496
X6.6404Y-2.5496
X6.6404Y-2.6496
X6.6404Y-2.7496
X6.76Y-1.96
X6.76Y-2.1
X6.76Y-2.22
X6.76Y-2.34
X6.77Y-2.63
X6.94Y-5.08
X6.965Y-3.01
X6.965Y-3.2069
X6.9669Y-2.63
X7.04Y-4.26
X7.04Y-4.3387
X7.095Y-2.61
X7.095Y-3.01
X7.11Y-1.825
X7.16Y-1.96
X7.16Y-2.1
X7.16Y-2.22
X7.16Y-2.34
X7.23Y-4.1004
X7.23Y-4.2004
X7.23Y-4.3004
X7.23Y-4.4004
X7.305Y-3.03
X7.34Y-5.08
X7.455Y-1.4589
X7.455Y-1.5376
X7.51Y-1.825
X7.53Y-4.1004
X7.53Y-4.2004
X7.53Y-4.3004
X7.53Y-4.4004
X7.5731Y-4.54
X7.69Y-3.23
X7.69Y-3.4269
X7.705Y-3.03
X7.75Y-4.1313
X7.75Y-4.21
X7.77Y-4.54
X7.82Y-2.9296
X7.82Y-3.0296
X7.82Y-3.1296
X7.82Y-3.2296
X8.02Y-1.88
X8.02Y-2.28
X8.12Y-1.5396
X8.12Y-1.6396
X8.12Y-1.7396
X8.12Y-2.9296
X8.12Y-3.0296
X8.12Y-3.1296
X8.12Y-3.2296
X8.16Y-2.01
X8.16Y-2.41
X8.19Y-2.53
X8.25Y-2.93
X8.3Y-1.7631
X8.3Y-1.96
X8.3Y-2.09
X8.3Y-2.39
X8.4Y-2.09
X8.4Y-2.39
X8.41Y-1.67
X8.41Y-1.97
X8.4469Y-2.93
X8.5Y-2.09
X8.5Y-2.39
X8.52Y-1.7631
X8.52Y-1.96
X8.59Y-2.53
X8.6Y-2.09
X8.6Y-2.39
X8.6396Y-5.3404
X8.6396Y-5.6404
X8.64Y-1.57
X8.64Y-1.97
X8.64Y-5.0131
X8.64Y-5.21
X8.7Y-5.76
X8.7Y-6.16
X8.71Y-1.425
X8.7396Y-5.3404
X8.7396Y-5.6404
X8.74Y-2.4031
X8.74Y-2.6
X8.76Y-1.57
X8.76Y-1.97
X8.82Y-4.82
X8.82Y-5.22
X8.82Y-5.76
X8.82Y-6.16
X8.8396Y-5.3404
X8.8396Y-5.6404
X8.88Y-1.57
X8.88Y-1.97
X8.9396Y-5.3404
X8.9396Y-5.6404
X8.94Y-4.82
X8.94Y-5.22
X8.94Y-5.77
X8.94Y-5.9669
X9.11Y-1.425
X9.545Y-2.29
X9.545Y-2.69
T4
X6.8396Y-4.8228
X6.9396Y-4.8228
T5
X1.62Y-3.97
X1.6732Y-2.0669
X1.7717Y-2.0669
X1.8701Y-2.0669
X2.5Y-1.36
X2.6575Y-5.2165
X2.6575Y-6.2008
X2.7559Y-5.2165
X2.7559Y-6.2008
X2.8543Y-3.6417
X2.8543Y-5.2165
X2.8543Y-6.2008
X2.9528Y-3.6417
X3.0512Y-3.6417
X3.21Y-2.82
X3.248Y-2.4606
X3.3465Y-2.4606
X3.4449Y-2.4606
X4.02Y-3.97
X4.2323Y-3.6417
X4.2323Y-5.2165
X4.3307Y-3.6417
X4.3307Y-5.2165
X4.4291Y-3.6417
X4.4291Y-5.2165
X5.4134Y-5.2165
X5.5118Y-5.2165
X5.6102Y-5.2165
X6.05Y-3.81
X7.25Y-4.91
X7.47Y-3.66
X7.5Y-4.91
X7.5787Y-2.4606
X7.6772Y-2.4606
X7.75Y-4.91
X7.7756Y-2.4606
X8.1693Y-5.2165
X8.1693Y-6.2008
X8.2677Y-5.2165
X8.2677Y-6.2008
X8.3661Y-5.2165
X8.3661Y-6.2008
X8.565Y-1.36
X9.1535Y-2.0669
X9.252Y-2.0669
X9.3504Y-2.0669
T6
X2.86Y-1.4316
X2.86Y-1.6284
X2.9584Y-1.53
X6.255Y-1.315
X6.255Y-1.715
X6.485Y-5.865
X6.6716Y-1.4892
X6.77Y-1.3908
X6.8684Y-1.4892
X6.885Y-5.865
X6.9816Y-1.4908
X7.08Y-1.5892
X7.1784Y-1.4908
X7.78Y-1.405
X8.18Y-1.405
T7
X3.64Y-5.49
X3.74Y-5.49
X5.82Y-5.5
X5.92Y-5.5
X7.28Y-5.51
X7.38Y-5.51
X8.47Y-3.81
X8.47Y-3.91
X8.47Y-4.01
T8
X6.8898Y-5.3268
X6.8898Y-5.5118
X6.8898Y-5.6968
X6.9016Y-3.4449
X7.0866Y-3.4449
X7.2716Y-3.4449
T9
X1.3386Y-1.3386
X1.3386Y-6.1417
X9.685Y-1.3386
X9.685Y-6.1417
T2
G00X1.752Y-2.3654
M15
G01X1.7913Y-2.3654
M16
G05
G00X1.752Y-2.6921
M15
G01X1.7913Y-2.6921
M16
G05
G00X1.752Y-2.8142
M15
G01X1.7913Y-2.8142
M16
G05
G00X1.752Y-3.1536
M15
G01X1.7913Y-3.1536
M16
G05
G00X1.752Y-3.4804
M15
G01X1.7913Y-3.4804
M16
G05
G00X1.752Y-3.6025
M15
G01X1.7913Y-3.6025
M16
G05
G00X1.7913Y-4.6661
M15
G01X1.752Y-4.6661
M16
G05
G00X1.7913Y-4.7882
M15
G01X1.752Y-4.7882
M16
G05
G00X1.7913Y-5.115
M15
G01X1.752Y-5.115
M16
G05
G00X1.7913Y-5.6504
M15
G01X1.752Y-5.6504
M16
G05
G00X1.7913Y-5.7724
M15
G01X1.752Y-5.7724
M16
G05
G00X1.7913Y-6.0992
M15
G01X1.752Y-6.0992
M16
G05
G00X9.2323Y-2.3654
M15
G01X9.2717Y-2.3654
M16
G05
G00X9.2323Y-2.6921
M15
G01X9.2717Y-2.6921
M16
G05
G00X9.2323Y-2.8142
M15
G01X9.2717Y-2.8142
M16
G05
G00X9.2323Y-4.7276
M15
G01X9.2717Y-4.7276
M16
G05
G00X9.2323Y-5.0543
M15
G01X9.2717Y-5.0543
M16
G05
G00X9.2323Y-5.1764
M15
G01X9.2717Y-5.1764
M16
G05
G00X9.2323Y-5.7118
M15
G01X9.2717Y-5.7118
M16
G05
G00X9.2323Y-6.0386
M15
G01X9.2717Y-6.0386
M16
G05
G00X9.2323Y-6.1606
M15
G01X9.2717Y-6.1606
M16
G05
T6
G00X1.5827Y-1.7854
M15
G01X1.5827Y-1.7579
M16
G05
G00X1.9606Y-1.7854
M15
G01X1.9606Y-1.7579
M16
G05
G00X2.5669Y-4.935
M15
G01X2.5669Y-4.9075
M16
G05
G00X2.5669Y-5.9193
M15
G01X2.5669Y-5.8917
M16
G05
G00X2.7638Y-3.3602
M15
G01X2.7638Y-3.3327
M16
G05
G00X2.9449Y-4.935
M15
G01X2.9449Y-4.9075
M16
G05
G00X2.9449Y-5.9193
M15
G01X2.9449Y-5.8917
M16
G05
G00X3.1417Y-3.3602
M15
G01X3.1417Y-3.3327
M16
G05
G00X3.1575Y-2.1791
M15
G01X3.1575Y-2.1516
M16
G05
G00X3.5354Y-2.1791
M15
G01X3.5354Y-2.1516
M16
G05
G00X4.1417Y-3.3602
M15
G01X4.1417Y-3.3327
M16
G05
G00X4.1417Y-4.935
M15
G01X4.1417Y-4.9075
M16
G05
G00X4.5197Y-3.3602
M15
G01X4.5197Y-3.3327
M16
G05
G00X4.5197Y-4.935
M15
G01X4.5197Y-4.9075
M16
G05
G00X5.3228Y-4.935
M15
G01X5.3228Y-4.9075
M16
G05
G00X5.7008Y-4.935
M15
G01X5.7008Y-4.9075
M16
G05
G00X7.4882Y-2.1791
M15
G01X7.4882Y-2.1516
M16
G05
G00X7.8661Y-2.1791
M15
G01X7.8661Y-2.1516
M16
G05
G00X8.0787Y-4.935
M15
G01X8.0787Y-4.9075
M16
G05
G00X8.0787Y-5.9193
M15
G01X8.0787Y-5.8917
M16
G05
G00X8.4567Y-4.935
M15
G01X8.4567Y-4.9075
M16
G05
G00X8.4567Y-5.9193
M15
G01X8.4567Y-5.8917
M16
G05
G00X9.063Y-1.7854
M15
G01X9.063Y-1.7579
M16
G05
G00X9.4409Y-1.7854
M15
G01X9.4409Y-1.7579
M16
G05
M30
